<?xml version="1.0" encoding="UTF-8"?>
<svg version="1.1" xmlns="http://www.w3.org/2000/svg" width="640" height="640">
<path d="M0 0 C211.2 0 422.4 0 640 0 C640 211.2 640 422.4 640 640 C428.8 640 217.6 640 0 640 C0 428.8 0 217.6 0 0 Z " fill="#CAE0DF" transform="translate(0,0)"/>
<path d="M0 0 C10.56 0 21.12 0 32 0 C33.27875 2.31 34.5575 4.62 35.875 7 C39.42539829 13.35149248 43.15767013 19.55686728 47.04956055 25.70385742 C50.51579103 31.18922543 53.86339388 36.74002343 57.1875 42.3125 C60.86350579 48.47066452 64.59022563 54.58081342 68.4765625 60.609375 C71.07413558 64.68556661 73.53220807 68.84446532 76 73 C76.9993132 74.66707856 77.99913433 76.33385304 79 78 C83.05953773 76.64682076 84.04702958 74.03628694 86.0625 70.5 C86.4546167 69.83000977 86.8467334 69.16001953 87.25073242 68.46972656 C88.50867692 66.31780251 89.75477031 64.15930188 91 62 C92.59884199 59.24687208 94.20385175 56.49740867 95.8125 53.75 C96.21952148 53.05398682 96.62654297 52.35797363 97.04589844 51.64086914 C101.28330449 44.43940245 105.74975031 37.38660081 110.23828125 30.33984375 C110.70049072 29.61071777 111.1627002 28.8815918 111.63891602 28.13037109 C112.52363346 26.74560976 113.41941398 25.36783309 114.32788086 23.99853516 C116.60519372 20.50946105 118.37574818 17.18828002 119.83984375 13.28125 C122.02848084 7.99848192 124.1463717 3.2847194 129 0 C138.7093044 -2.3047895 149.18578568 -1.08685573 159 0 C160.3012763 2.60255261 160.12293904 4.48819819 160.12025452 7.40359497 C160.12231651 9.12420639 160.12231651 9.12420639 160.12442017 10.87957764 C160.12082489 12.14408752 160.11722961 13.40859741 160.11352539 14.71142578 C160.11324343 16.0516052 160.11340143 17.39178478 160.1139679 18.73196411 C160.11425551 22.37637101 160.10836451 26.02074517 160.10139394 29.66514444 C160.09515451 33.47149395 160.09455613 37.27784416 160.09336853 41.084198 C160.09025696 48.29482959 160.0820459 55.50544608 160.07201904 62.71607101 C160.06085251 70.92393979 160.05534609 79.13180929 160.05032361 87.33968377 C160.03986316 104.2264661 160.02151983 121.1132276 160 138 C150.76 138 141.52 138 132 138 C130.4773861 134.95477221 130.82064829 131.77224414 130.79467773 128.42919922 C130.78477814 127.64862152 130.77487854 126.86804382 130.76467896 126.06381226 C130.73303022 123.47746845 130.70829324 120.89110625 130.68359375 118.3046875 C130.66302713 116.51392126 130.64203074 114.72315992 130.62062073 112.93240356 C130.56536987 108.21421257 130.5159739 103.49597755 130.46777344 98.77770996 C130.4175804 93.96504793 130.36188288 89.15245 130.30664062 84.33984375 C130.19902219 74.8932839 130.09758541 65.44666844 130 56 C127.54934397 58.41043924 125.43580766 60.60959118 123.66796875 63.5625 C123.0344751 64.60857422 123.0344751 64.60857422 122.38818359 65.67578125 C121.93008301 66.44277344 121.47198242 67.20976562 121 68 C119.93423717 69.75039192 118.86779154 71.50036823 117.80078125 73.25 C116.63786095 75.16656966 115.47510658 77.08324002 114.3125 79 C106.95999815 91.09956633 99.49122349 103.1180601 91.87109375 115.05078125 C87.87810614 121.34452998 83.9439261 127.67543441 80 134 C77.6966309 131.7603167 76.06094749 129.65666824 74.4375 126.875 C73.91800781 125.99199219 73.39851563 125.10898437 72.86328125 124.19921875 C71.94095703 122.61560547 71.94095703 122.61560547 71 121 C69.37730706 118.22781141 67.75158476 115.4574066 66.125 112.6875 C65.69243896 111.95072021 65.25987793 111.21394043 64.81420898 110.45483398 C58.9204273 100.43727756 52.75263496 90.59208884 46.57910156 80.74560547 C43.78559244 76.28227573 41.06260392 71.78267576 38.3828125 67.25 C36.41554236 64.04901808 34.27179869 60.97631045 32.1015625 57.91015625 C31 56 31 56 31 53 C30.34 53 29.68 53 29 53 C29 81.05 29 109.1 29 138 C19.43 138 9.86 138 0 138 C0 92.46 0 46.92 0 0 Z " fill="#763045" transform="translate(238,248)"/>
<path d="M0 0 C39.27 0 78.54 0 119 0 C119 7.92 119 15.84 119 24 C118.505 24.495 118.505 24.495 118 25 C103.48 25 88.96 25 74 25 C74 62.29 74 99.58 74 138 C64.43 138 54.86 138 45 138 C45 100.71 45 63.42 45 25 C30.15 25 15.3 25 0 25 C0 16.75 0 8.5 0 0 Z " fill="#122D58" transform="translate(102,248)"/>
<path d="M0 0 C39.27 0 78.54 0 119 0 C119 7.92 119 15.84 119 24 C118 25 118 25 116.17137146 25.12025452 C115.37417191 25.11803391 114.57697235 25.11581329 113.75561523 25.11352539 C112.40432777 25.11341209 112.40432777 25.11341209 111.02574158 25.11329651 C110.04658279 25.10813522 109.06742401 25.10297394 108.05859375 25.09765625 C107.06118668 25.0962413 106.0637796 25.09482635 105.03614807 25.09336853 C101.83656876 25.08775114 98.63705831 25.07519571 95.4375 25.0625 C93.27408955 25.05748724 91.11067801 25.05292395 88.94726562 25.04882812 C83.63148675 25.03777607 78.31574829 25.02102104 73 25 C73.00092179 25.5702207 73.00184359 26.1404414 73.00279331 26.72794151 C73.02485866 40.59001883 73.04135272 54.45209308 73.05181217 68.31418419 C73.0569728 75.01773076 73.06401108 81.72126563 73.07543945 88.42480469 C73.08627293 94.88921865 73.09227782 101.35362042 73.09487724 107.81804276 C73.09673066 110.28929461 73.10034967 112.76054576 73.10573006 115.23179245 C73.11294657 118.68237521 73.11399068 122.13290705 73.11352539 125.58349609 C73.11712067 126.61423752 73.12071594 127.64497894 73.12442017 128.70695496 C73.1230455 129.64367538 73.12167084 130.58039581 73.12025452 131.54550171 C73.12117631 132.36221029 73.1220981 133.17891888 73.12304783 134.02037621 C73 136 73 136 72 138 C62.76 138 53.52 138 44 138 C44 100.71 44 63.42 44 25 C29.48 25 14.96 25 0 25 C0 16.75 0 8.5 0 0 Z " fill="#063664" transform="translate(419,248)"/>
<path d="M0 0 C1.3012763 2.60255261 1.12293904 4.48819819 1.12025452 7.40359497 C1.12231651 9.12420639 1.12231651 9.12420639 1.12442017 10.87957764 C1.11902725 12.77634247 1.11902725 12.77634247 1.11352539 14.71142578 C1.11324343 16.0516052 1.11340143 17.39178478 1.1139679 18.73196411 C1.11425551 22.37637101 1.10836451 26.02074517 1.10139394 29.66514444 C1.09515451 33.47149395 1.09455613 37.27784416 1.09336853 41.084198 C1.09025696 48.29482959 1.0820459 55.50544608 1.07201904 62.71607101 C1.06085251 70.92393979 1.05534609 79.13180929 1.05032361 87.33968377 C1.03986316 104.2264661 1.02151983 121.1132276 1 138 C-8.24 138 -17.48 138 -27 138 C-28.5226139 134.95477221 -28.17935171 131.77224414 -28.20532227 128.42919922 C-28.21522186 127.64862152 -28.22512146 126.86804382 -28.23532104 126.06381226 C-28.26696978 123.47746845 -28.29170676 120.89110625 -28.31640625 118.3046875 C-28.33697287 116.51392126 -28.35796926 114.72315992 -28.37937927 112.93240356 C-28.43463013 108.21421257 -28.4840261 103.49597755 -28.53222656 98.77770996 C-28.5824196 93.96504793 -28.63811712 89.15245 -28.69335938 84.33984375 C-28.80097781 74.8932839 -28.90241459 65.44666844 -29 56 C-31.45185434 58.41075659 -33.55454215 60.60273824 -35.3125 63.5625 C-35.73144531 64.25085938 -36.15039062 64.93921875 -36.58203125 65.6484375 C-37.28392578 66.81246094 -37.28392578 66.81246094 -38 68 C-44.91598916 79.35176152 -44.91598916 79.35176152 -50 84 C-50.66 84.99 -51.32 85.98 -52 87 C-52.625 84.625 -52.625 84.625 -53 82 C-52.01 81.01 -52.01 81.01 -51 80 C-51 79.01 -51 78.02 -51 77 C-51.66 77 -52.32 77 -53 77 C-51.9024777 74.00675737 -51.32317108 73.15389099 -48.375 71.75 C-47.199375 71.37875 -47.199375 71.37875 -46 71 C-45.67 68.36 -45.34 65.72 -45 63 C-43.68 63.33 -42.36 63.66 -41 64 C-41 63.34 -41 62.68 -41 62 C-40.01 62 -39.02 62 -38 62 C-37.86722656 61.30132812 -37.73445313 60.60265625 -37.59765625 59.8828125 C-37.33275391 58.51769531 -37.33275391 58.51769531 -37.0625 57.125 C-36.88847656 56.22007812 -36.71445312 55.31515625 -36.53515625 54.3828125 C-36 52 -36 52 -35 50 C-34.01 50 -33.02 50 -32 50 C-32 49.34 -32 48.68 -32 48 C-31.01 48 -30.02 48 -29 48 C-29 48.66 -29 49.32 -29 50 C-27.68 50.33 -26.36 50.66 -25 51 C-24.505 53.475 -24.505 53.475 -24 56 C-23.67 56 -23.34 56 -23 56 C-22.97310551 58.95839355 -22.95321259 61.91654427 -22.9375 64.875 C-22.92912109 65.71675781 -22.92074219 66.55851562 -22.91210938 67.42578125 C-22.90888672 68.23144531 -22.90566406 69.03710938 -22.90234375 69.8671875 C-22.89710693 70.61081543 -22.89187012 71.35444336 -22.88647461 72.12060547 C-23 74 -23 74 -24 76 C-23.34 76 -22.68 76 -22 76 C-21.80101699 77.66533474 -21.61649527 79.33239851 -21.4375 81 C-21.28087891 82.3921875 -21.28087891 82.3921875 -21.12109375 83.8125 C-21.0053314 86.85966378 -21.3300383 89.64228645 -21.75317383 92.65332031 C-22.26743012 97.54257002 -22.14277117 102.46423242 -22.125 107.375 C-22.12886719 108.46683594 -22.13273437 109.55867188 -22.13671875 110.68359375 C-22.13478516 112.24400391 -22.13478516 112.24400391 -22.1328125 113.8359375 C-22.13112061 115.25205322 -22.13112061 115.25205322 -22.12939453 116.69677734 C-22.15103878 119.02820571 -22.15103878 119.02820571 -21 121 C-20.92883618 123.37402501 -20.91590915 125.75000677 -20.9375 128.125 C-20.94652344 129.40632812 -20.95554687 130.68765625 -20.96484375 132.0078125 C-20.97644531 132.99523437 -20.98804688 133.98265625 -21 135 C-15.31302429 135.91397824 -10.68697571 135.91397824 -5 135 C-4.93941406 134.02417969 -4.87882812 133.04835938 -4.81640625 132.04296875 C-4.73261719 130.77066406 -4.64882813 129.49835938 -4.5625 128.1875 C-4.48128906 126.92292969 -4.40007812 125.65835938 -4.31640625 124.35546875 C-4 121 -4 121 -3 118 C-2.93611795 116.55205421 -2.93042603 115.10110114 -2.96240234 113.65209961 C-2.98770523 112.34075294 -2.98770523 112.34075294 -3.01351929 111.00291443 C-3.0374173 110.0622261 -3.06131531 109.12153778 -3.0859375 108.15234375 C-3.10717682 107.18470596 -3.12841614 106.21706818 -3.15029907 105.22010803 C-3.19655175 103.17491702 -3.24547927 101.12978502 -3.296875 99.0847168 C-3.3747747 95.9465762 -3.44189083 92.80833441 -3.5078125 89.66992188 C-3.5540412 87.68488068 -3.60089495 85.69985392 -3.6484375 83.71484375 C-3.66828705 82.7721312 -3.6881366 81.82941864 -3.70858765 80.85813904 C-3.73176056 79.98706009 -3.75493347 79.11598114 -3.77880859 78.21850586 C-3.80664932 77.06625771 -3.80664932 77.06625771 -3.83505249 75.89073181 C-3.89092732 73.91165635 -3.89092732 73.91165635 -5 72 C-4.7600659 70.18915608 -4.51747858 68.37863865 -4.26443481 66.56958008 C-3.70159932 61.10036504 -3.88004404 55.58578801 -3.90234375 50.09375 C-3.90421228 48.75996962 -3.90563413 47.42618854 -3.90663147 46.09240723 C-3.9104224 42.60723933 -3.92022285 39.1221141 -3.93133545 35.63696289 C-3.94162377 32.07048113 -3.94614489 28.50399237 -3.95117188 24.9375 C-3.9618487 17.95831597 -3.97888324 10.97916004 -4 4 C-4.99 4 -5.98 4 -7 4 C-6.505 5.98 -6.505 5.98 -6 8 C-6.66 8 -7.32 8 -8 8 C-8.495 7.01 -8.495 7.01 -9 6 C-11.60449549 5.30244795 -11.60449549 5.30244795 -14.6875 4.875 C-16.24017578 4.62363281 -16.24017578 4.62363281 -17.82421875 4.3671875 C-20.91601663 4.00971025 -23.89093277 3.93474222 -27 4 C-27.99 7.3 -28.98 10.6 -30 14 C-30.66 14 -31.32 14 -32 14 C-34.95996328 16.87026742 -36.20046086 19.02727208 -36.5625 23.0625 C-36.99912869 26.99215824 -37.34543262 28.24333388 -40 31 C-40.515625 31.5775 -41.03125 32.155 -41.5625 32.75 C-43 34 -43 34 -45 34 C-45.4125 35.051875 -45.825 36.10375 -46.25 37.1875 C-47.70348074 40.59732449 -49.57306854 43.18162798 -52 46 C-54.33391203 48.78114056 -54.33391203 48.78114056 -53.625 51.6875 C-53.41875 52.450625 -53.2125 53.21375 -53 54 C-56 56 -56 56 -60 56 C-60.99 58.475 -60.99 58.475 -62 61 C-63.65 61 -65.3 61 -67 61 C-61.31135592 50.77418965 -55.23696145 40.81397704 -49.05078125 30.8828125 C-48.53475342 30.05233398 -48.01872559 29.22185547 -47.48706055 28.36621094 C-46.55029347 26.87562705 -45.60036103 25.39315932 -44.63208008 23.92285156 C-42.36920545 20.45584289 -40.61618461 17.16373016 -39.16015625 13.28125 C-31.74483014 -4.61730807 -16.7427653 -1.85414438 0 0 Z " fill="#CC5656" transform="translate(397,248)"/>
<path d="M0 0 C10.56 0 21.12 0 32 0 C33.27875 2.31 34.5575 4.62 35.875 7 C39.42539829 13.35149248 43.15767013 19.55686728 47.04956055 25.70385742 C50.51579357 31.18922945 53.86324486 36.74010911 57.1875 42.3125 C62.07838275 50.50134558 66.9751529 58.67504602 72.4375 66.5 C74 69 74 69 74 72 C71.36 72 68.72 72 66 72 C66 69.69 66 67.38 66 65 C63.07175348 64.02391783 61.04386724 63.91773332 58 64 C58 63.34 58 62.68 58 62 C58.66 62 59.32 62 60 62 C60 61.34 60 60.68 60 60 C59.01 59.505 59.01 59.505 58 59 C57.60406879 56.15649404 57.49150146 53.3351283 57.34375 50.46875 C57.2303125 49.6540625 57.116875 48.839375 57 48 C56.01 47.505 56.01 47.505 55 47 C55.33 46.01 55.66 45.02 56 44 C55.34 44 54.68 44 54 44 C54 45.32 54 46.64 54 48 C52.68 47.67 51.36 47.34 50 47 C50.01160156 46.24074219 50.02320313 45.48148437 50.03515625 44.69921875 C50.04417969 43.70535156 50.05320312 42.71148437 50.0625 41.6875 C50.07410156 40.70136719 50.08570313 39.71523438 50.09765625 38.69921875 C50.12329862 35.90036151 50.12329862 35.90036151 49 33 C46.03 32.505 46.03 32.505 43 32 C42.34 29.03 41.68 26.06 41 23 C38.69 23.33 36.38 23.66 34 24 C34.2784375 22.6696875 34.2784375 22.6696875 34.5625 21.3125 C34.98891248 18.08394838 34.72075082 16.12325356 34 13 C33.9629721 11.3337447 33.95240038 9.66598681 34 8 C31.10765685 7.17361624 29.11257569 7 26 7 C26 5.68 26 4.36 26 3 C24.700625 3.020625 23.40125 3.04125 22.0625 3.0625 C20.70834367 3.08399454 19.35243917 3.07148199 18 3 C17.67 2.67 17.34 2.34 17 2 C14.66487041 2.32050798 12.33177975 2.65596692 10 3 C8 3 6 3 4 3 C2.75732936 4.02069722 2.75732936 4.02069722 2.87695217 6.16892338 C2.87787396 7.13404063 2.87879576 8.09915789 2.87974548 9.09352112 C2.87837082 10.19714996 2.87699615 11.30077881 2.87557983 12.43785095 C2.87917511 13.65920242 2.88277039 14.88055389 2.88647461 16.13891602 C2.88632858 17.41677979 2.88618256 18.69464355 2.8860321 20.01123047 C2.88574415 23.52553591 2.8916406 27.0398075 2.89860606 30.55410504 C2.90483988 34.22299356 2.90544342 37.89188277 2.90663147 41.56077576 C2.9097447 48.51290435 2.91795798 55.4650173 2.92798096 62.41713899 C2.93914234 70.3299478 2.94465261 78.24275734 2.94967639 86.15557206 C2.9601406 102.43705721 2.97773989 118.71852661 3 135 C8.56950272 135.83949429 8.56950272 135.83949429 14.18359375 136.09765625 C14.88291016 136.09443359 15.58222656 136.09121094 16.30273438 136.08789062 C17.00720703 136.07951172 17.71167969 136.07113281 18.4375 136.0625 C19.16904297 136.05798828 19.90058594 136.05347656 20.65429688 136.04882812 C22.43623419 136.03718148 24.21812863 136.01925191 26 136 C26.93423645 132.98968256 27.04449911 132.13349732 26 129 C26.66 129 27.32 129 28 129 C28 126.03 28 123.06 28 120 C28.33 120 28.66 120 29 120 C29 125.94 29 131.88 29 138 C19.43 138 9.86 138 0 138 C0 92.46 0 46.92 0 0 Z " fill="#314864" transform="translate(238,248)"/>
<path d="M0 0 C4.09333905 -0.07408587 8.18641933 -0.1285704 12.28027344 -0.16479492 C13.67324622 -0.17989358 15.06617138 -0.20037444 16.45898438 -0.22631836 C18.45942885 -0.26265122 20.46021827 -0.27811192 22.4609375 -0.29296875 C24.26763916 -0.31653442 24.26763916 -0.31653442 26.11083984 -0.34057617 C27.0642627 -0.22818604 28.01768555 -0.1157959 29 0 C31.27291028 3.40936543 31.24938865 4.59183277 31.24723816 8.5930481 C31.25143265 9.75688019 31.25562714 10.92071228 31.25994873 12.11981201 C31.25432922 13.39785706 31.24870972 14.6759021 31.24291992 15.99267578 C31.24399275 17.35108532 31.24593145 18.70949441 31.24867249 20.06790161 C31.25352293 23.75780121 31.24586337 27.44758001 31.23571944 31.137465 C31.22694513 34.99405693 31.22869625 38.850645 31.2290802 42.70724487 C31.22814347 49.18196641 31.21945713 55.65664109 31.20581055 62.13134766 C31.19007168 69.62665361 31.18481289 77.12190829 31.1855461 84.61722958 C31.1861555 91.81843411 31.181059 99.01962188 31.17275429 106.22082138 C31.16921567 109.29019171 31.16739022 112.35955611 31.16686058 115.42892838 C31.16585928 119.03876257 31.15978021 122.64855337 31.14969444 126.25837326 C31.14535957 128.22265936 31.14594264 130.18695436 31.14663696 132.15124512 C31.14237198 133.30943756 31.13810699 134.46763 31.13371277 135.66091919 C31.13203692 136.6737604 31.13036108 137.6866016 31.12863445 138.73013496 C31 141 31 141 30 142 C25.40164669 142.25491663 20.79207531 142.18523285 16.1875 142.1875 C14.89005859 142.19974609 13.59261719 142.21199219 12.25585938 142.22460938 C10.38704102 142.22750977 10.38704102 142.22750977 8.48046875 142.23046875 C7.33473389 142.23457764 6.18899902 142.23868652 5.00854492 142.24291992 C2 142 2 142 -2 140 C-2.33 114.59 -2.66 89.18 -3 63 C-3.33 63.66 -3.66 64.32 -4 65 C-4.66 65 -5.32 65 -6 65 C-6.103125 65.721875 -6.20625 66.44375 -6.3125 67.1875 C-7.06793947 70.27793421 -8.15531315 72.41743841 -10 75 C-10.66 75 -11.32 75 -12 75 C-11.773125 75.598125 -11.54625 76.19625 -11.3125 76.8125 C-11 79 -11 79 -12.3125 80.75 C-14 82 -14 82 -16 82 C-16 82.99 -16 83.98 -16 85 C-16.99 85.495 -16.99 85.495 -18 86 C-18.7609625 88.01805081 -18.7609625 88.01805081 -19.375 90.375 C-20.32024985 93.39308201 -20.79229081 94.79229081 -23.0625 97.0625 C-25 98 -25 98 -27 98 C-27.77321882 100.98241547 -28.41196203 103.97580475 -29 107 C-29.66 107 -30.32 107 -31 107 C-31 107.99 -31 108.98 -31 110 C-31.66 110 -32.32 110 -33 110 C-33.33 111.65 -33.66 113.3 -34 115 C-36.475 115.495 -36.475 115.495 -39 116 C-35.64547609 109.79982574 -32.05522086 103.8075783 -28.25 97.875 C-24.45760098 91.92253662 -20.72687909 85.9447321 -17.125 79.875 C-14.2997366 75.11946353 -11.40207089 70.43831058 -8.2734375 65.875 C-7.43740745 64.64403551 -6.62877618 63.3939203 -5.8515625 62.125 C-4.8125 60.4375 -4.8125 60.4375 -3 58 C-2.01 58 -1.02 58 0 58 C0.33 85.06 0.66 112.12 1 140 C10.24 140 19.48 140 29 140 C28.505 71.69 28.505 71.69 28 2 C18.43 2 8.86 2 -1 2 C-0.67 1.34 -0.34 0.68 0 0 Z " fill="#E8C2BC" transform="translate(369,246)"/>
<path d="M0 0 C0.99 0 1.98 0 3 0 C3 0.66 3 1.32 3 2 C4.32 2.33 5.64 2.66 7 3 C7.33 4.65 7.66 6.3 8 8 C8.33 8 8.66 8 9 8 C9.02689449 10.95839355 9.04678741 13.91654427 9.0625 16.875 C9.07087891 17.71675781 9.07925781 18.55851562 9.08789062 19.42578125 C9.09272461 20.63427734 9.09272461 20.63427734 9.09765625 21.8671875 C9.10551147 22.98262939 9.10551147 22.98262939 9.11352539 24.12060547 C9 26 9 26 8 28 C8.66 28 9.32 28 10 28 C10.19898301 29.66533474 10.38350473 31.33239851 10.5625 33 C10.66691406 33.928125 10.77132813 34.85625 10.87890625 35.8125 C10.9946686 38.85966378 10.6699617 41.64228645 10.24682617 44.65332031 C9.73256988 49.54257002 9.85722883 54.46423242 9.875 59.375 C9.87113281 60.46683594 9.86726563 61.55867188 9.86328125 62.68359375 C9.86521484 64.24400391 9.86521484 64.24400391 9.8671875 65.8359375 C9.86831543 66.78001465 9.86944336 67.7240918 9.87060547 68.69677734 C9.84896122 71.02820571 9.84896122 71.02820571 11 73 C11.07116382 75.37402501 11.08409085 77.75000677 11.0625 80.125 C11.05347656 81.40632813 11.04445313 82.68765625 11.03515625 84.0078125 C11.02355469 84.99523437 11.01195312 85.98265625 11 87 C13.97 87.495 13.97 87.495 17 88 C17 88.33 17 88.66 17 89 C15.58344207 89.0272415 14.16672955 89.04650467 12.75 89.0625 C11.56664062 89.07990234 11.56664062 89.07990234 10.359375 89.09765625 C8 89 8 89 4 88 C3.67 61.6 3.34 35.2 3 8 C-0.60547366 11.58968176 -0.60547366 11.58968176 -3.3125 15.5625 C-3.73144531 16.25085938 -4.15039062 16.93921875 -4.58203125 17.6484375 C-5.28392578 18.81246094 -5.28392578 18.81246094 -6 20 C-12.91598916 31.35176152 -12.91598916 31.35176152 -18 36 C-18.66 36.99 -19.32 37.98 -20 39 C-20.625 36.625 -20.625 36.625 -21 34 C-20.34 33.34 -19.68 32.68 -19 32 C-19 31.01 -19 30.02 -19 29 C-19.66 29 -20.32 29 -21 29 C-19.9024777 26.00675737 -19.32317108 25.15389099 -16.375 23.75 C-15.59125 23.5025 -14.8075 23.255 -14 23 C-13.67 20.36 -13.34 17.72 -13 15 C-11.68 15.33 -10.36 15.66 -9 16 C-9 15.34 -9 14.68 -9 14 C-8.01 14 -7.02 14 -6 14 C-5.86722656 13.30132812 -5.73445313 12.60265625 -5.59765625 11.8828125 C-5.42105469 10.97273438 -5.24445313 10.06265625 -5.0625 9.125 C-4.88847656 8.22007812 -4.71445312 7.31515625 -4.53515625 6.3828125 C-4 4 -4 4 -3 2 C-2.01 2 -1.02 2 0 2 C0 1.34 0 0.68 0 0 Z " fill="#F7352D" transform="translate(365,296)"/>
<path d="M0 0 C0.33 0 0.66 0 1 0 C1 8.25 1 16.5 1 25 C15.85 25 30.7 25 46 25 C46 62.62 46 100.24 46 139 C54.91 139 63.82 139 73 139 C72.34 139.99 71.68 140.98 71 142 C68.3703989 142.25273054 65.99751599 142.32810743 63.375 142.25 C62.2921875 142.23356445 62.2921875 142.23356445 61.1875 142.21679688 C56.40061654 142.11743016 51.72742099 141.7879035 47 141 C47 141.66 47 142.32 47 143 C45.68 143.33 44.36 143.66 43 144 C42.67 142.68 42.34 141.36 42 140 C42.66 140 43.32 140 44 140 C43.98747192 139.01203934 43.97494385 138.02407867 43.96203613 137.00617981 C43.84240152 127.55275407 43.72473573 118.09930545 43.60884857 108.64583302 C43.54925519 103.78934833 43.48904101 98.93287323 43.42724609 94.07641602 C43.14320035 71.71644578 42.90978755 49.36210503 43 27 C42.38415039 27.16749756 41.76830078 27.33499512 41.13378906 27.50756836 C37.64268519 28.31323844 34.52071934 27.5281079 31 27 C31 27.66 31 28.32 31 29 C27.02084841 29.02886984 23.04172347 29.04675406 19.0625 29.0625 C17.35803711 29.07506836 17.35803711 29.07506836 15.61914062 29.08789062 C14.53955078 29.09111328 13.45996094 29.09433594 12.34765625 29.09765625 C10.84730835 29.10551147 10.84730835 29.10551147 9.31665039 29.11352539 C7 29 7 29 6 28 C5.01 27.835 4.02 27.67 3 27.5 C0 27 0 27 -1 26 C-1.09949077 24.24314326 -1.1308026 22.48232667 -1.1328125 20.72265625 C-1.13410156 19.65208984 -1.13539063 18.58152344 -1.13671875 17.47851562 C-1.13285156 16.35123047 -1.12898438 15.22394531 -1.125 14.0625 C-1.12886719 12.93908203 -1.13273437 11.81566406 -1.13671875 10.65820312 C-1.13542969 9.58634766 -1.13414062 8.51449219 -1.1328125 7.41015625 C-1.13168457 6.42152588 -1.13055664 5.43289551 -1.12939453 4.41430664 C-1 2 -1 2 0 0 Z " fill="#B2D3E1" transform="translate(417,248)"/>
<path d="M0 0 C1.59122681 0.02018188 1.59122681 0.02018188 3.21459961 0.04077148 C4.36895508 0.04786133 5.52331055 0.05495117 6.71264648 0.06225586 C7.91856445 0.09512695 9.12448242 0.12799805 10.36694336 0.16186523 C11.57672852 0.16766602 12.78651367 0.1734668 14.03295898 0.17944336 C23.0099688 0.30489067 23.0099688 0.30489067 25.30444336 2.59936523 C25.55053902 4.93818855 25.55053902 4.93818855 25.54495239 7.92703247 C25.54770172 9.05727844 25.55045105 10.18752441 25.55328369 11.35202026 C25.54609314 12.59782867 25.53890259 13.84363708 25.53149414 15.12719727 C25.53178619 16.43446777 25.53207825 17.74173828 25.53237915 19.08862305 C25.53295437 22.6793538 25.52117276 26.26995169 25.50723124 29.86065149 C25.49475205 33.61094144 25.4935556 37.36123424 25.49118042 41.11154175 C25.48495736 48.21594765 25.46853542 55.3202922 25.44848144 62.42467105 C25.42614809 70.51161661 25.41513547 78.59856506 25.40509057 86.68553376 C25.38416987 103.32351455 25.34857635 119.96142965 25.30444336 136.59936523 C21.34444336 136.59936523 17.38444336 136.59936523 13.30444336 136.59936523 C17.30444336 134.59936523 17.30444336 134.59936523 21.30444336 134.59936523 C21.3650293 133.62354492 21.42561523 132.64772461 21.48803711 131.64233398 C21.57182617 130.3700293 21.65561523 129.09772461 21.74194336 127.78686523 C21.8231543 126.52229492 21.90436523 125.25772461 21.98803711 123.95483398 C22.30444336 120.59936523 22.30444336 120.59936523 23.30444336 117.59936523 C23.36832541 116.15141944 23.37401733 114.70046638 23.34204102 113.25146484 C23.31673813 111.94011818 23.31673813 111.94011818 23.29092407 110.60227966 C23.26702606 109.66159134 23.24312805 108.72090302 23.21850586 107.75170898 C23.19726654 106.7840712 23.17602722 105.81643341 23.15414429 104.81947327 C23.10789161 102.77428226 23.05896409 100.72915026 23.00756836 98.68408203 C22.92966866 95.54594143 22.86255253 92.40769964 22.79663086 89.26928711 C22.75040216 87.28424591 22.70354841 85.29921915 22.65600586 83.31420898 C22.63615631 82.37149643 22.61630676 81.42878387 22.59585571 80.45750427 C22.5726828 79.58642532 22.54950989 78.71534637 22.52563477 77.81787109 C22.49779404 76.66562294 22.49779404 76.66562294 22.46939087 75.49009705 C22.41351604 73.51102158 22.41351604 73.51102158 21.30444336 71.59936523 C21.54437746 69.78852131 21.78696478 67.97800389 22.04000854 66.16894531 C22.60284404 60.69973027 22.42439932 55.18515325 22.40209961 49.69311523 C22.40023108 48.35933485 22.39880923 47.02555378 22.39781189 45.69177246 C22.39402096 42.20660457 22.38422051 38.72147934 22.37310791 35.23632812 C22.36281959 31.66984636 22.35829847 28.10335761 22.35327148 24.53686523 C22.34259466 17.55768121 22.32556012 10.57852528 22.30444336 3.59936523 C21.31444336 3.59936523 20.32444336 3.59936523 19.30444336 3.59936523 C19.79944336 5.57936523 19.79944336 5.57936523 20.30444336 7.59936523 C19.64444336 7.59936523 18.98444336 7.59936523 18.30444336 7.59936523 C17.80944336 6.60936523 17.80944336 6.60936523 17.30444336 5.59936523 C14.69994787 4.90181318 14.69994787 4.90181318 11.61694336 4.47436523 C10.06426758 4.22299805 10.06426758 4.22299805 8.48022461 3.96655273 C5.38842673 3.60907549 2.41351059 3.53410745 -0.69555664 3.59936523 C-1.68555664 6.89936523 -2.67555664 10.19936523 -3.69555664 13.59936523 C-4.35555664 13.59936523 -5.01555664 13.59936523 -5.69555664 13.59936523 C-8.65551992 16.46963265 -9.8960175 18.62663731 -10.25805664 22.66186523 C-10.84639149 27.95687889 -12.97394066 30.05496907 -16.69555664 33.59936523 C-17.02555664 32.60936523 -17.35555664 31.61936523 -17.69555664 30.59936523 C-17.03555664 30.59936523 -16.37555664 30.59936523 -15.69555664 30.59936523 C-15.50219727 30.01928711 -15.30883789 29.43920898 -15.10961914 28.84155273 C-14.57107647 27.22592471 -14.02926616 25.61138315 -13.48461914 23.99780273 C-12.84253234 22.04611314 -12.25999777 20.07490919 -11.69555664 18.09936523 C-11.36555664 17.27436523 -11.03555664 16.44936523 -10.69555664 15.59936523 C-9.70555664 15.26936523 -8.71555664 14.93936523 -7.69555664 14.59936523 C-6.99767799 12.65845774 -6.99767799 12.65845774 -6.69555664 10.34936523 C-5.94606187 5.69625187 -5.07705703 1.1288991 0 0 Z " fill="#EF3834" transform="translate(370.695556640625,248.400634765625)"/>
<path d="M0 0 C39.27 0 78.54 0 119 0 C119 7.92 119 15.84 119 24 C118.67 24 118.34 24 118 24 C117.505 13.605 117.505 13.605 117 3 C114.25196045 3.00523682 111.5039209 3.01047363 108.67260742 3.01586914 C99.52047462 3.03255306 90.36834108 3.04352995 81.21619701 3.05181217 C75.6756172 3.05699681 70.13505316 3.06401262 64.59448242 3.07543945 C59.23224549 3.08642735 53.87002359 3.09230997 48.50777626 3.09487724 C46.47761105 3.0967032 44.44744651 3.10026759 42.41728783 3.10573006 C30.83479821 3.13561152 19.32104173 2.92501478 7.75874329 2.21531677 C5.1757344 2.06735106 2.58724346 2 0 2 C0 1.34 0 0.68 0 0 Z " fill="#103C5C" transform="translate(419,248)"/>
<path d="M0 0 C2 0 4 0 6 0 C6 27.39 6 54.78 6 83 C5.67 83 5.34 83 5 83 C4.67 56.6 4.34 30.2 4 3 C0.39452634 6.58968176 0.39452634 6.58968176 -2.3125 10.5625 C-2.73144531 11.25085938 -3.15039062 11.93921875 -3.58203125 12.6484375 C-4.04996094 13.42445313 -4.51789063 14.20046875 -5 15 C-11.91598916 26.35176152 -11.91598916 26.35176152 -17 31 C-17.99 32.485 -17.99 32.485 -19 34 C-19.625 31.625 -19.625 31.625 -20 29 C-19.34 28.34 -18.68 27.68 -18 27 C-18 26.01 -18 25.02 -18 24 C-18.66 24 -19.32 24 -20 24 C-18.9024777 21.00675737 -18.32317108 20.15389099 -15.375 18.75 C-14.59125 18.5025 -13.8075 18.255 -13 18 C-12.67 15.36 -12.34 12.72 -12 10 C-10.68 10.33 -9.36 10.66 -8 11 C-8 10.34 -8 9.68 -8 9 C-7.01 9 -6.02 9 -5 9 C-4.67 8.01 -4.34 7.02 -4 6 C-3.01 6 -2.02 6 -1 6 C-0.67 4.02 -0.34 2.04 0 0 Z " fill="#B7343C" transform="translate(364,301)"/>
<path d="M0 0 C0.33 0 0.66 0 1 0 C1 27.39 1 54.78 1 83 C0.67 83 0.34 83 0 83 C-0.33 57.59 -0.66 32.18 -1 6 C-1.33 6.66 -1.66 7.32 -2 8 C-2.66 8 -3.32 8 -4 8 C-4.103125 8.721875 -4.20625 9.44375 -4.3125 10.1875 C-5.06793947 13.27793421 -6.15531315 15.41743841 -8 18 C-8.66 18 -9.32 18 -10 18 C-9.773125 18.598125 -9.54625 19.19625 -9.3125 19.8125 C-9 22 -9 22 -10.3125 23.75 C-12 25 -12 25 -14 25 C-14 25.99 -14 26.98 -14 28 C-14.66 28.33 -15.32 28.66 -16 29 C-16.7609625 31.01805081 -16.7609625 31.01805081 -17.375 33.375 C-18.32024985 36.39308201 -18.79229081 37.79229081 -21.0625 40.0625 C-23 41 -23 41 -25 41 C-25.77321882 43.98241547 -26.41196203 46.97580475 -27 50 C-27.66 50 -28.32 50 -29 50 C-29 50.99 -29 51.98 -29 53 C-29.66 53 -30.32 53 -31 53 C-31.495 55.475 -31.495 55.475 -32 58 C-34.475 58.495 -34.475 58.495 -37 59 C-33.64547609 52.79982574 -30.05522086 46.8075783 -26.25 40.875 C-22.45760098 34.92253662 -18.72687909 28.9447321 -15.125 22.875 C-11.91168857 17.4662938 -8.55437283 12.19068471 -5 7 C-4.22778272 5.83424891 -3.45679578 4.6676811 -2.6875 3.5 C-1 1 -1 1 0 0 Z " fill="#E1C7C8" transform="translate(367,303)"/>
<path d="M0 0 C35.97 0 71.94 0 109 0 C109 7.92 109 15.84 109 24 C108.67 24 108.34 24 108 24 C107.67 16.74 107.34 9.48 107 2 C100.05822726 1.97708145 93.11658507 1.957157 86.17480469 1.94506836 C83.81184444 1.94003041 81.44888732 1.93319992 79.0859375 1.92456055 C75.69530465 1.91247146 72.30471291 1.90676641 68.9140625 1.90234375 C67.85256989 1.89718246 66.79107727 1.89202118 65.69741821 1.88670349 C64.71655243 1.88662796 63.73568665 1.88655243 62.72509766 1.88647461 C61.85905914 1.884254 60.99302063 1.88203339 60.10073853 1.87974548 C57.9416034 1.86446254 57.9416034 1.86446254 56 3 C54.21268076 3.0908238 52.42194511 3.11753799 50.63232422 3.11352539 C49.51131317 3.11344986 48.39030212 3.11337433 47.23532104 3.11329651 C46.02071198 3.10813522 44.80610291 3.10297394 43.5546875 3.09765625 C42.31453888 3.0962413 41.07439026 3.09482635 39.79666138 3.09336853 C36.49881867 3.08871096 33.20102454 3.07972439 29.90319824 3.06866455 C26.53833613 3.05843731 23.17346692 3.05386809 19.80859375 3.04882812 C13.20571007 3.03778269 6.60285901 3.02103247 0 3 C0 2.01 0 1.02 0 0 Z " fill="#1E3655" transform="translate(112,248)"/>
<path d="M0 0 C5.28 0 10.56 0 16 0 C16 0.33 16 0.66 16 1 C11.60384387 1.70338498 7.4439671 2 3 2 C1.75732936 3.02069722 1.75732936 3.02069722 1.87695217 5.16892338 C1.87787396 6.13404063 1.87879576 7.09915789 1.87974548 8.09352112 C1.87837082 9.19714996 1.87699615 10.30077881 1.87557983 11.43785095 C1.87917511 12.65920242 1.88277039 13.88055389 1.88647461 15.13891602 C1.88632858 16.41677979 1.88618256 17.69464355 1.8860321 19.01123047 C1.88574415 22.52553591 1.8916406 26.0398075 1.89860606 29.55410504 C1.90483988 33.22299356 1.90544342 36.89188277 1.90663147 40.56077576 C1.9097447 47.51290435 1.91795798 54.4650173 1.92798096 61.41713899 C1.93914234 69.3299478 1.94465261 77.24275734 1.94967639 85.15557206 C1.9601406 101.43705721 1.97773989 117.71852661 2 134 C7.56950272 134.83949429 7.56950272 134.83949429 13.18359375 135.09765625 C13.88291016 135.09443359 14.58222656 135.09121094 15.30273438 135.08789062 C16.00720703 135.07951172 16.71167969 135.07113281 17.4375 135.0625 C18.16904297 135.05798828 18.90058594 135.05347656 19.65429688 135.04882812 C21.43623419 135.03718148 23.21812863 135.01925191 25 135 C25.93423645 131.98968256 26.04449911 131.13349732 25 128 C25.66 128 26.32 128 27 128 C27 125.03 27 122.06 27 119 C27.33 119 27.66 119 28 119 C28 124.94 28 130.88 28 137 C18.76 137 9.52 137 0 137 C0 91.79 0 46.58 0 0 Z " fill="#0F2847" transform="translate(239,249)"/>
<path d="M0 0 C2.64 0 5.28 0 8 0 C8.125 5.75 8.125 5.75 7 8 C7.99 8.33 8.98 8.66 10 9 C10.6875 11.0625 10.6875 11.0625 11 13 C12.32 13.33 13.64 13.66 15 14 C15.91058531 17.07322544 16.08886184 19.80097361 16 23 C18.64 23.33 21.28 23.66 24 24 C24.495 30.93 24.495 30.93 25 38 C26.65 38.66 28.3 39.32 30 40 C31.25 43.3125 31.25 43.3125 32 47 C32.20625 47.969375 32.4125 48.93875 32.625 49.9375 C32.74875 50.618125 32.8725 51.29875 33 52 C28.79337438 50.59779146 27.89930145 47.65614503 25.9375 43.9375 C22.80366272 38.18297594 19.56153106 32.54059171 16.0625 27 C15.65322266 26.35063477 15.24394531 25.70126953 14.82226562 25.03222656 C13.55076019 23.01983614 12.27561599 21.00978689 11 19 C9.14127958 16.06534895 7.28819679 13.12721566 5.4375 10.1875 C4.79276733 9.17333008 4.79276733 9.17333008 4.13500977 8.13867188 C2.43881464 5.44461353 1.01097335 3.03292004 0 0 Z " fill="#522F4D" transform="translate(280,320)"/>
<path d="M0 0 C1.32 0.66 2.64 1.32 4 2 C3.67 9.26 3.34 16.52 3 24 C2.34 24 1.68 24 1 24 C1 24.66 1 25.32 1 26 C0.34 26 -0.32 26 -1 26 C-0.505 27.98 -0.505 27.98 0 30 C-1.98 30 -3.96 30 -6 30 C-6 29.67 -6 29.34 -6 29 C-7.66554932 29.00785522 -7.66554932 29.00785522 -9.36474609 29.01586914 C-13.47590329 29.03393985 -17.58705696 29.04543962 -21.69824219 29.05493164 C-23.47917267 29.05996711 -25.260099 29.06679581 -27.04101562 29.07543945 C-29.59766665 29.08753942 -32.15426312 29.09323609 -34.7109375 29.09765625 C-35.50994476 29.10281754 -36.30895203 29.10797882 -37.13217163 29.11329651 C-42.77225659 29.11387171 -42.77225659 29.11387171 -45 28 C-45 27.01 -45 26.02 -45 25 C-30.15 25 -15.3 25 0 25 C0 16.75 0 8.5 0 0 Z " fill="#C3E2EB" transform="translate(538,249)"/>
<path d="M0 0 C0.99 0 1.98 0 3 0 C3 0.66 3 1.32 3 2 C4.32 2.33 5.64 2.66 7 3 C7 31.05 7 59.1 7 88 C6.34 88 5.68 88 5 88 C5 60.61 5 33.22 5 5 C0.08514186 6.3909864 0.08514186 6.3909864 -1.3125 9.125 C-1.539375 9.74375 -1.76625 10.3625 -2 11 C-2.99 11 -3.98 11 -5 11 C-4.67 8.03 -4.34 5.06 -4 2 C-2.68 2 -1.36 2 0 2 C0 1.34 0 0.68 0 0 Z " fill="#E33A38" transform="translate(365,296)"/>
<path d="M0 0 C2.58607653 2.35272465 4.21752154 4.83820751 5.9609375 7.859375 C6.51523437 8.81070312 7.06953125 9.76203125 7.640625 10.7421875 C8.21296875 11.73476563 8.7853125 12.72734375 9.375 13.75 C13.8482325 21.57380466 13.8482325 21.57380466 18.9140625 29.015625 C21 32 21 32 21 35 C18.36 35 15.72 35 13 35 C13 32.69 13 30.38 13 28 C10.07175348 27.02391783 8.04386724 26.91773332 5 27 C5 26.34 5 25.68 5 25 C5.66 25 6.32 25 7 25 C7 24.34 7 23.68 7 23 C6.34 22.67 5.68 22.34 5 22 C4.60406879 19.15649404 4.49150146 16.3351283 4.34375 13.46875 C4.2303125 12.6540625 4.116875 11.839375 4 11 C3.34 10.67 2.68 10.34 2 10 C2.33 9.01 2.66 8.02 3 7 C2.34 7 1.68 7 1 7 C0.67 4.69 0.34 2.38 0 0 Z " fill="#2F324A" transform="translate(291,285)"/>
<path d="M0 0 C8.58 0 17.16 0 26 0 C26.33 37.29 26.66 74.58 27 113 C26.34 113 25.68 113 25 113 C24.67 76.7 24.34 40.4 24 3 C21.36 3 18.72 3 16 3 C16 2.34 16 1.68 16 1 C10.72 1 5.44 1 0 1 C0 0.67 0 0.34 0 0 Z " fill="#CCE8F0" transform="translate(120,274)"/>
<path d="M0 0 C0.33 0 0.66 0 1 0 C0.48400727 4.98792975 -0.30517957 9.25450279 -2 14 C-2 14.66 -2 15.32 -2 16 C-2.31802943 17.66965451 -2.64984951 19.33678518 -3 21 C-4.423125 21.0928125 -4.423125 21.0928125 -5.875 21.1875 C-6.90625 21.455625 -7.9375 21.72375 -9 22 C-10.45291273 24.46255685 -10.45291273 24.46255685 -11 27 C-12.65 27 -14.3 27 -16 27 C-11.9506512 19.8167137 -7.85852452 12.66428099 -3.5625 5.625 C-2.90378906 4.54476563 -2.24507813 3.46453125 -1.56640625 2.3515625 C-1.04949219 1.57554687 -0.53257812 0.79953125 0 0 Z " fill="#A5303D" transform="translate(346,282)"/>
<path d="M0 0 C0.33 0 0.66 0 1 0 C1.33 33.99 1.66 67.98 2 103 C2.33 103 2.66 103 3 103 C3.33 105.97 3.66 108.94 4 112 C2.02 112.495 2.02 112.495 0 113 C0 75.71 0 38.42 0 0 Z " fill="#1D3854" transform="translate(147,273)"/>
<path d="M0 0 C2.14419424 3.21629135 2.24856996 4.03067318 2.24050903 7.72660828 C2.24325836 8.69835999 2.24600769 9.67011169 2.24884033 10.67131042 C2.24164978 11.73585953 2.23445923 12.80040863 2.22705078 13.8972168 C2.22734283 15.01931549 2.22763489 16.14141418 2.22793579 17.29751587 C2.22653993 21.01482821 2.21096648 24.73194132 2.1953125 28.44921875 C2.19158329 31.02325837 2.18873588 33.5972994 2.18673706 36.17134094 C2.17987511 42.25928368 2.16410439 48.34714393 2.14403808 54.43505555 C2.12168845 61.36605932 2.11068801 68.2970665 2.10064721 75.22809732 C2.07973839 89.48543677 2.04455656 103.74271584 2 118 C1.67 118 1.34 118 1 118 C1 80.71 1 43.42 1 5 C-0.32 5 -1.64 5 -3 5 C-2.67 3.68 -2.34 2.36 -2 1 C-1.67 1.66 -1.34 2.32 -1 3 C-0.67 2.01 -0.34 1.02 0 0 Z " fill="#CDE7F6" transform="translate(236,250)"/>
<path d="M0 0 C1.98 0 3.96 0 6 0 C5.01 0.33 4.02 0.66 3 1 C3 1.66 3 2.32 3 3 C2.34 3 1.68 3 1 3 C1.01474869 3.75055664 1.02949738 4.50111328 1.04469299 5.27441406 C1.23072375 14.84938578 1.40251455 24.42455879 1.5625 34 C1.57523327 34.76153507 1.58796654 35.52307014 1.60108566 36.30768204 C2.00710101 60.89703496 2.01440629 85.42192472 1 110 C0.67 110 0.34 110 0 110 C0 73.7 0 37.4 0 0 Z " fill="#CDE9F2" transform="translate(177,274)"/>
<path d="M0 0 C1.07354736 0.02618408 2.14709473 0.05236816 3.25317383 0.0793457 C4.41655273 0.09545898 5.57993164 0.11157227 6.77856445 0.12817383 C7.99350586 0.17006836 9.20844727 0.21196289 10.46020508 0.25512695 C12.30001953 0.28896484 12.30001953 0.28896484 14.17700195 0.32348633 C17.21012067 0.38249642 20.2408073 0.46478103 23.27270508 0.56762695 C23.27270508 0.89762695 23.27270508 1.22762695 23.27270508 1.56762695 C20.39813716 1.90510243 17.52314448 2.23773158 14.64770508 2.56762695 C13.83946289 2.66301758 13.0312207 2.7584082 12.19848633 2.85668945 C7.86296769 3.35016312 3.64533197 3.68083412 -0.72729492 3.56762695 C-1.71729492 6.86762695 -2.70729492 10.16762695 -3.72729492 13.56762695 C-4.38729492 13.56762695 -5.04729492 13.56762695 -5.72729492 13.56762695 C-8.6872582 16.43789437 -9.92775578 18.59489903 -10.28979492 22.63012695 C-10.87812977 27.92514061 -13.00567895 30.02323079 -16.72729492 33.56762695 C-17.05729492 32.57762695 -17.38729492 31.58762695 -17.72729492 30.56762695 C-17.06729492 30.56762695 -16.40729492 30.56762695 -15.72729492 30.56762695 C-15.53393555 29.98754883 -15.34057617 29.4074707 -15.14135742 28.80981445 C-14.60281475 27.19418643 -14.06100444 25.57964487 -13.51635742 23.96606445 C-12.87427062 22.01437486 -12.29173605 20.04317091 -11.72729492 18.06762695 C-11.39729492 17.24262695 -11.06729492 16.41762695 -10.72729492 15.56762695 C-9.73729492 15.23762695 -8.74729492 14.90762695 -7.72729492 14.56762695 C-7.02941627 12.62671946 -7.02941627 12.62671946 -6.72729492 10.31762695 C-5.97547065 5.65005125 -5.11966591 1.06554679 0 0 Z " fill="#E33C33" transform="translate(370.727294921875,248.432373046875)"/>
<path d="M0 0 C2 0 4 0 6 0 C6 27.39 6 54.78 6 83 C5.67 83 5.34 83 5 83 C4.67 56.6 4.34 30.2 4 3 C1.08131263 5.91868737 -0.71943078 7.86571796 -2.75 11.25 C-3.17796875 11.95640625 -3.6059375 12.6628125 -4.046875 13.390625 C-4.36140625 13.92171875 -4.6759375 14.4528125 -5 15 C-5.66 14.01 -6.32 13.02 -7 12 C-6.34 11.67 -5.68 11.34 -5 11 C-4.34444881 8.47266765 -4.34444881 8.47266765 -4 6 C-3.01 6 -2.02 6 -1 6 C-0.67 4.02 -0.34 2.04 0 0 Z " fill="#C54A45" transform="translate(364,301)"/>
<path d="M0 0 C0 27.39 0 54.78 0 83 C-0.33 83 -0.66 83 -1 83 C-1.33 57.59 -1.66 32.18 -2 6 C-2.33 6.66 -2.66 7.32 -3 8 C-3.66 8 -4.32 8 -5 8 C-5.103125 8.721875 -5.20625 9.44375 -5.3125 10.1875 C-6.05986932 13.24491993 -7.28045189 15.38329635 -9 18 C-9.66 17.67 -10.32 17.34 -11 17 C-9.90322765 14.72532419 -8.79801578 12.45545476 -7.6875 10.1875 C-7.37876953 9.54490234 -7.07003906 8.90230469 -6.75195312 8.24023438 C-2.69587921 0 -2.69587921 0 0 0 Z " fill="#F3D0D0" transform="translate(368,303)"/>
<path d="M0 0 C3.06254377 3.68193464 5.67155839 7.48884595 8.1875 11.5625 C8.88230469 12.67753906 9.57710938 13.79257812 10.29296875 14.94140625 C12.61811137 19.10750847 13.1319145 22.0298141 13.0625 26.75 C13.05347656 27.54921875 13.04445313 28.3484375 13.03515625 29.171875 C13.02355469 29.77515625 13.01195312 30.3784375 13 31 C11.68 30.67 10.36 30.34 9 30 C9.01160156 29.24074219 9.02320313 28.48148437 9.03515625 27.69921875 C9.04417969 26.70535156 9.05320312 25.71148437 9.0625 24.6875 C9.07410156 23.70136719 9.08570313 22.71523438 9.09765625 21.69921875 C9.12329862 18.90036151 9.12329862 18.90036151 8 16 C5.03 15.505 5.03 15.505 2 15 C1.86722656 14.39671875 1.73445313 13.7934375 1.59765625 13.171875 C1.42105469 12.37265625 1.24445313 11.5734375 1.0625 10.75 C0.88847656 9.96109375 0.71445312 9.1721875 0.53515625 8.359375 C0.19019979 6.83854506 -0.19515469 5.32604965 -0.62890625 3.828125 C-1 2 -1 2 0 0 Z " fill="#213355" transform="translate(279,265)"/>
<path d="M0 0 C1.32 0.33 2.64 0.66 4 1 C-4.95301174 17.21489903 -4.95301174 17.21489903 -9.515625 23.828125 C-12.46273166 28.14020737 -15.21062922 32.5848717 -18 37 C-19 34 -19 34 -18.29296875 32.02734375 C-17.92816406 31.33769531 -17.56335938 30.64804687 -17.1875 29.9375 C-16.83042969 29.24527344 -16.47335937 28.55304688 -16.10546875 27.83984375 C-15 26 -15 26 -13 24 C-12.525625 22.824375 -12.05125 21.64875 -11.5625 20.4375 C-10.7890625 18.7359375 -10.7890625 18.7359375 -10 17 C-9.01 16.67 -8.02 16.34 -7 16 C-7 15.01 -7 14.02 -7 13 C-6.01 12.34 -5.02 11.68 -4 11 C-3.65458149 8.66842508 -3.32205743 6.33491639 -3 4 C-1.4375 1.5625 -1.4375 1.5625 0 0 Z " fill="#ECCDCE" transform="translate(358,256)"/>
<path d="M0 0 C0.66 0.33 1.32 0.66 2 1 C1.53158691 1.71748413 1.53158691 1.71748413 1.05371094 2.44946289 C-0.38289484 4.65248881 -1.8164615 6.85747705 -3.25 9.0625 C-3.98669922 10.19075195 -3.98669922 10.19075195 -4.73828125 11.34179688 C-7.64571396 15.81924325 -10.39936166 20.33742697 -13 25 C-13.33 25 -13.66 25 -14 25 C-14 19.72 -14 14.44 -14 9 C-11.69 9 -9.38 9 -7 9 C-6.01 8.67 -5.02 8.34 -4 8 C-3.896875 7.236875 -3.79375 6.47375 -3.6875 5.6875 C-2.95635961 2.82940576 -2.23048087 1.84257115 0 0 Z " fill="#9C3840" transform="translate(350,327)"/>
<path d="M0 0 C2.64 0 5.28 0 8 0 C8.125 5.75 8.125 5.75 7 8 C7.99 8.33 8.98 8.66 10 9 C10.6875 11.0625 10.6875 11.0625 11 13 C12.32 13.33 13.64 13.66 15 14 C15 17 15 17 14 20 C10.62240256 18.87413419 10.33352965 18.40321574 8.5546875 15.5078125 C8.11769531 14.80269531 7.68070312 14.09757812 7.23046875 13.37109375 C6.78316406 12.62988281 6.33585937 11.88867188 5.875 11.125 C5.41996094 10.39152344 4.96492188 9.65804688 4.49609375 8.90234375 C2.67082841 5.92884027 1.10832319 3.32496958 0 0 Z " fill="#332949" transform="translate(280,320)"/>
<path d="M0 0 C0.33 0 0.66 0 1 0 C1 3.3 1 6.6 1 10 C11.56 9.67 22.12 9.34 33 9 C32.67 10.32 32.34 11.64 32 13 C28.4854643 13 24.99602433 12.90894634 21.484375 12.78125 C20.23398437 12.73613281 18.98359375 12.69101562 17.6953125 12.64453125 C16.39335937 12.59683594 15.09140625 12.54914063 13.75 12.5 C12.43257812 12.45230469 11.11515625 12.40460938 9.7578125 12.35546875 C6.50518452 12.23761991 3.25258218 12.11910507 0 12 C-1.18719263 7.63496852 -0.67009018 4.46726786 0 0 Z " fill="#B5CDDA" transform="translate(237,376)"/>
<path d="M0 0 C0.66 0 1.32 0 2 0 C3.45194365 1.88052942 4.81364605 3.83136849 6.125 5.8125 C6.84945313 6.89144531 7.57390625 7.97039062 8.3203125 9.08203125 C10 12 10 12 10 15 C7.36 15 4.72 15 2 15 C2.0928125 13.329375 2.0928125 13.329375 2.1875 11.625 C2.125625 10.42875 2.06375 9.2325 2 8 C1.01 7.34 0.02 6.68 -1 6 C-0.67 4.02 -0.34 2.04 0 0 Z " fill="#3C304D" transform="translate(302,305)"/>
<path d="M0 0 C2.125 0.375 2.125 0.375 4 1 C4 1.66 4 2.32 4 3 C3.34 3.66 2.68 4.32 2 5 C2 6.32 2 7.64 2 9 C2.66 9 3.32 9 4 9 C3.67 7.68 3.34 6.36 3 5 C4.32 4.01 5.64 3.02 7 2 C7.33 2.99 7.66 3.98 8 5 C6.78515625 7.26171875 6.78515625 7.26171875 5.0625 9.6875 C4.21365234 10.89986328 4.21365234 10.89986328 3.34765625 12.13671875 C2.90292969 12.75160156 2.45820313 13.36648438 2 14 C-1.1977903 11.02211505 -2.91262062 7.81486577 -5 4 C-4.34 4 -3.68 4 -3 4 C-2.67 3.34 -2.34 2.68 -2 2 C-1.34 1.34 -0.68 0.68 0 0 Z " fill="#6D334A" transform="translate(316,368)"/>
<path d="M0 0 C0.99 0.33 1.98 0.66 3 1 C-1.66264463 9.90273708 -6.64237795 18.49738423 -12 27 C-13.33735521 24.32528957 -12.71006471 23.30659828 -11.8125 20.5 C-11.45091797 19.30890625 -11.45091797 19.30890625 -11.08203125 18.09375 C-9.75564068 15.5271603 -8.53710443 15.21677457 -6 14 C-5.855625 12.948125 -5.71125 11.89625 -5.5625 10.8125 C-4.83958968 5.9127745 -3.0517385 3.83423555 0 0 Z " fill="#E1D9D8" transform="translate(336,293)"/>
<path d="M0 0 C1.1446875 0.495 1.1446875 0.495 2.3125 1 C4.99069135 2.17436686 4.99069135 2.17436686 8 2 C7.34 4.31 6.68 6.62 6 9 C6.515625 9.391875 7.03125 9.78375 7.5625 10.1875 C8.036875 10.785625 8.51125 11.38375 9 12 C8.6875 14.6875 8.6875 14.6875 8 17 C5.57294661 13.86350023 3.42827692 10.60330681 1.3125 7.25 C0.68988281 6.26515625 0.06726563 5.2803125 -0.57421875 4.265625 C-1.04472656 3.51796875 -1.51523437 2.7703125 -2 2 C-1.34 1.34 -0.68 0.68 0 0 Z " fill="#223252" transform="translate(272,303)"/>
<path d="M0 0 C0.33 0 0.66 0 1 0 C1 5.94 1 11.88 1 18 C-8.24 18 -17.48 18 -27 18 C-26.01 16.515 -26.01 16.515 -25 15 C-24.01902344 15.16371094 -23.03804687 15.32742188 -22.02734375 15.49609375 C-17.85881034 16.09159852 -13.76598864 16.11249575 -9.5625 16.0625 C-8.83095703 16.05798828 -8.09941406 16.05347656 -7.34570312 16.04882812 C-5.56376581 16.03718148 -3.78187137 16.01925191 -2 16 C-1.06576355 12.98968256 -0.95550089 12.13349732 -2 9 C-1.34 9 -0.68 9 0 9 C0 6.03 0 3.06 0 0 Z " fill="#162C4A" transform="translate(266,368)"/>
<path d="M0 0 C1.65 0 3.3 0 5 0 C4.52389341 4.99911924 2.96837781 7.97832683 0 12 C-0.99 11.67 -1.98 11.34 -3 11 C-3.94921875 8.93359375 -3.94921875 8.93359375 -4.6875 6.4375 C-4.93886719 5.61121094 -5.19023437 4.78492188 -5.44921875 3.93359375 C-5.63097656 3.29550781 -5.81273437 2.65742188 -6 2 C-5.34 2 -4.68 2 -4 2 C-3.34 3.32 -2.68 4.64 -2 6 C-1.34 4.02 -0.68 2.04 0 0 Z " fill="#D3DAE4" transform="translate(319,315)"/>
<path d="M0 0 C9.57 0 19.14 0 29 0 C29.33 0.66 29.66 1.32 30 2 C29.34 2.66 28.68 3.32 28 4 C28 3.34 28 2.68 28 2 C18.43 2 8.86 2 -1 2 C-0.67 1.34 -0.34 0.68 0 0 Z " fill="#EBB7B3" transform="translate(369,246)"/>
<path d="M0 0 C2.73984731 0.03545089 5.45826234 0.20076673 8.19140625 0.38671875 C9.604627 0.44196445 11.01805547 0.49214281 12.43164062 0.53710938 C15.87674827 0.65767589 19.31399432 0.84700979 22.75390625 1.07421875 C22.75390625 3.05421875 22.75390625 5.03421875 22.75390625 7.07421875 C22.38225342 6.42678711 22.01060059 5.77935547 21.62768555 5.11230469 C19.89261019 2.82352437 19.89261019 2.82352437 17.02661133 2.52832031 C15.95306396 2.50737305 14.8795166 2.48642578 13.7734375 2.46484375 C12.61005859 2.43261719 11.44667969 2.40039062 10.24804688 2.3671875 C8.42563477 2.34591797 8.42563477 2.34591797 6.56640625 2.32421875 C5.33986328 2.29457031 4.11332031 2.26492187 2.84960938 2.234375 C-0.18235828 2.16358976 -3.21355308 2.11093462 -6.24609375 2.07421875 C-6.55289062 2.85152344 -6.8596875 3.62882813 -7.17578125 4.4296875 C-8.10043583 6.71432673 -9.11249288 8.8879885 -10.24609375 11.07421875 C-10.90609375 11.07421875 -11.56609375 11.07421875 -12.24609375 11.07421875 C-12.24609375 11.73421875 -12.24609375 12.39421875 -12.24609375 13.07421875 C-12.90609375 12.74421875 -13.56609375 12.41421875 -14.24609375 12.07421875 C-11.12760143 4.55949177 -8.53113554 0.36838258 0 0 Z " fill="#BD554E" transform="translate(374.24609375,246.92578125)"/>
<path d="M0 0 C0.33 0 0.66 0 1 0 C1 1.65 1 3.3 1 5 C0.34 5 -0.32 5 -1 5 C-2.32 7.64 -3.64 10.28 -5 13 C-5.66 13 -6.32 13 -7 13 C-7.33 13.99 -7.66 14.98 -8 16 C-9.40070613 11.79788161 -8.76587588 8.66690632 -6.9375 4.6875 C-6.628125 4.130625 -6.31875 3.57375 -6 3 C-5.01 3.33 -4.02 3.66 -3 4 C-3 3.34 -3 2.68 -3 2 C-2.01 2 -1.02 2 0 2 C0 1.34 0 0.68 0 0 Z " fill="#CE3233" transform="translate(359,308)"/>
<path d="M0 0 C1.97909398 -0.02686553 3.95828971 -0.04633375 5.9375 -0.0625 C7.03964844 -0.07410156 8.14179688 -0.08570313 9.27734375 -0.09765625 C12 0 12 0 13 1 C13.08700342 2.63472882 13.10701063 4.27314055 13.09765625 5.91015625 C13.09443359 6.89951172 13.09121094 7.88886719 13.08789062 8.90820312 C13.07951172 9.94912109 13.07113281 10.99003906 13.0625 12.0625 C13.05798828 13.10728516 13.05347656 14.15207031 13.04882812 15.22851562 C13.03699913 17.8190666 13.02051689 20.40950559 13 23 C12.67 23 12.34 23 12 23 C11.67 17.72 11.34 12.44 11 7 C10.34 7 9.68 7 9 7 C9 4 9 4 10 3 C9.36191406 2.95101562 8.72382813 2.90203125 8.06640625 2.8515625 C7.24011719 2.77679688 6.41382813 2.70203125 5.5625 2.625 C4.73878906 2.55539063 3.91507813 2.48578125 3.06640625 2.4140625 C2.38449219 2.27742187 1.70257813 2.14078125 1 2 C0.67 1.34 0.34 0.68 0 0 Z " fill="#0E2649" transform="translate(207,249)"/>
<path d="M0 0 C0 0.66 0 1.32 0 2 C-0.78648926 1.98316162 -1.57297852 1.96632324 -2.38330078 1.94897461 C-5.96495984 1.8985473 -9.54307126 1.91735623 -13.125 1.9375 C-14.98125 1.89592773 -14.98125 1.89592773 -16.875 1.85351562 C-23.62810514 1.75902305 -23.62810514 1.75902305 -29.17089844 5.07470703 C-30.64813114 7.32764142 -31.8410888 9.57328044 -33 12 C-33.33 12 -33.66 12 -34 12 C-34.19927643 8.41302423 -34.0683099 5.99904936 -32 3 C-28.82492819 1.00932294 -26.21026308 0.7074935 -22.5 0.5859375 C-21.448125 0.54726562 -20.39625 0.50859375 -19.3125 0.46875 C-17.6728125 0.42234375 -17.6728125 0.42234375 -16 0.375 C-14.3603125 0.31699219 -14.3603125 0.31699219 -12.6875 0.2578125 C-8.45513635 0.11258434 -4.23518612 0 0 0 Z " fill="#E4D6D1" transform="translate(396,244)"/>
<path d="M0 0 C0.33 0 0.66 0 1 0 C1 9.57 1 19.14 1 29 C0.34 28.67 -0.32 28.34 -1 28 C-0.99476318 27.35450195 -0.98952637 26.70900391 -0.98413086 26.04394531 C-0.96331343 23.11264015 -0.95032466 20.18135057 -0.9375 17.25 C-0.92912109 16.23421875 -0.92074219 15.2184375 -0.91210938 14.171875 C-0.90888672 13.1921875 -0.90566406 12.2125 -0.90234375 11.203125 C-0.89710693 10.30239258 -0.89187012 9.40166016 -0.88647461 8.47363281 C-0.9036978 6.01562322 -0.9036978 6.01562322 -1.63110352 3.79980469 C-1.75283936 3.20586914 -1.8745752 2.61193359 -2 2 C-1.34 1.34 -0.68 0.68 0 0 Z " fill="#152C4A" transform="translate(266,305)"/>
<path d="M0 0 C0.33 0 0.66 0 1 0 C1 11.88 1 23.76 1 36 C0.67 36 0.34 36 0 36 C-0.01981934 35.35973877 -0.03963867 34.71947754 -0.06005859 34.05981445 C-0.15563601 31.1436472 -0.26518214 28.22816428 -0.375 25.3125 C-0.4059375 24.30509766 -0.436875 23.29769531 -0.46875 22.25976562 C-0.52675781 20.79506836 -0.52675781 20.79506836 -0.5859375 19.30078125 C-0.6173584 18.40528564 -0.6487793 17.50979004 -0.68115234 16.5871582 C-1.02661113 13.78407493 -1.84681468 11.56735469 -3 9 C-2.34 8.34 -1.68 7.68 -1 7 C-0.59952556 4.67724823 -0.2602896 2.34260643 0 0 Z " fill="#DCDADD" transform="translate(366,308)"/>
<path d="M0 0 C2.875 1.0625 2.875 1.0625 6 3 C7.3125 6.375 7.3125 6.375 8 10 C8.20625 10.969375 8.4125 11.93875 8.625 12.9375 C8.74875 13.618125 8.8725 14.29875 9 15 C4.93948213 13.64649404 4.35771547 11.72487336 2.25 8.0625 C1.61578125 6.98097656 0.9815625 5.89945312 0.328125 4.78515625 C-0.11015625 3.86605469 -0.5484375 2.94695312 -1 2 C-0.67 1.34 -0.34 0.68 0 0 Z " fill="#57334B" transform="translate(304,357)"/>
<path d="M0 0 C0.33 0 0.66 0 1 0 C0.67 2.31 0.34 4.62 0 7 C-0.66 7 -1.32 7 -2 7 C-1.95875 7.928125 -1.9175 8.85625 -1.875 9.8125 C-2 13 -2 13 -4 16 C-6.625 16.1875 -6.625 16.1875 -9 16 C-8.43410156 15.01257813 -7.86820312 14.02515625 -7.28515625 13.0078125 C-6.54424241 11.71355794 -5.80335855 10.41928621 -5.0625 9.125 C-4.68931641 8.47402344 -4.31613281 7.82304687 -3.93164062 7.15234375 C-1.89866922 3.61253166 -1.89866922 3.61253166 0 0 Z " fill="#85464D" transform="translate(339,293)"/>
<path d="M0 0 C0.66 0.33 1.32 0.66 2 1 C1.34 2.98 0.68 4.96 0 7 C-0.66 7 -1.32 7 -2 7 C-2 7.99 -2 8.98 -2 10 C-2.66 10 -3.32 10 -4 10 C-4.33 11.65 -4.66 13.3 -5 15 C-6.65 15.33 -8.3 15.66 -10 16 C-6.99935973 10.36901124 -3.81213639 5.11915459 0 0 Z " fill="#E0D8DA" transform="translate(340,346)"/>
<path d="M0 0 C2.64 0 5.28 0 8 0 C8.3367697 4.93928888 8.16130459 5.78492722 5 10 C3.35 6.7 1.7 3.4 0 0 Z " fill="#2D3253" transform="translate(280,320)"/>
<path d="M0 0 C0.66 0.33 1.32 0.66 2 1 C2 5.62 2 10.24 2 15 C4.97 15.495 4.97 15.495 8 16 C8 16.33 8 16.66 8 17 C5.03 17 2.06 17 -1 17 C-0.67 11.39 -0.34 5.78 0 0 Z " fill="#E93B2C" transform="translate(374,368)"/>
<path d="M0 0 C2.31 0.33 4.62 0.66 7 1 C5.68775452 4.93673644 4.08089673 7.22719294 1 10 C-0.1577506 6.52674819 -0.06866652 3.63932552 0 0 Z " fill="#873A4B" transform="translate(328,352)"/>
<path d="M0 0 C2 0 4 0 6 0 C6 0.99 6 1.98 6 3 C5.10667969 3.0928125 5.10667969 3.0928125 4.1953125 3.1875 C1.07278155 4.34316982 0.4395674 6.11660877 -1.125 9 C-3.81604697 13.90802348 -3.81604697 13.90802348 -6 15 C-6.33 14.01 -6.66 13.02 -7 12 C-6.34 11.67 -5.68 11.34 -5 11 C-4.34444881 8.47266765 -4.34444881 8.47266765 -4 6 C-3.01 6 -2.02 6 -1 6 C-0.67 4.02 -0.34 2.04 0 0 Z " fill="#D25654" transform="translate(364,301)"/>
<path d="M0 0 C0 0.66 0 1.32 0 2 C-0.66 2 -1.32 2 -2 2 C-2.268125 2.886875 -2.53625 3.77375 -2.8125 4.6875 C-4.4773799 9.33163867 -5.85564477 12.23709652 -10 15 C-9.34 11.7 -8.68 8.4 -8 5 C-7.34 5 -6.68 5 -6 5 C-5.566875 4.0409375 -5.566875 4.0409375 -5.125 3.0625 C-3.72314735 0.49243681 -2.91896073 0 0 0 Z " fill="#BA363A" transform="translate(355,277)"/>
<path d="M0 0 C0.66 0 1.32 0 2 0 C2.96070434 2.88211302 3.10581883 4.69850044 3.0625 7.6875 C3.05347656 8.49574219 3.04445313 9.30398438 3.03515625 10.13671875 C3.02355469 10.75160156 3.01195312 11.36648438 3 12 C1.68 11.67 0.36 11.34 -1 11 C-1.0270043 9.54176788 -1.04639787 8.08339325 -1.0625 6.625 C-1.07410156 5.81289063 -1.08570313 5.00078125 -1.09765625 4.1640625 C-1 2 -1 2 0 0 Z " fill="#212D50" transform="translate(289,284)"/>
<path d="M0 0 C1.65 0 3.3 0 5 0 C5 0.99 5 1.98 5 3 C4.2733313 3.70443237 4.2733313 3.70443237 3.53198242 4.4230957 C1.58644549 6.42568104 1.58589438 7.47777835 1.48828125 10.23046875 C1.45283203 11.03291016 1.41738281 11.83535156 1.38085938 12.66210938 C1.35830078 13.49548828 1.33574219 14.32886719 1.3125 15.1875 C1.27833984 16.03248047 1.24417969 16.87746094 1.20898438 17.74804688 C1.12658529 19.83156649 1.06161355 21.91576216 1 24 C0.67 24 0.34 24 0 24 C0 16.08 0 8.16 0 0 Z " fill="#0F2946" transform="translate(102,248)"/>
<path d="M0 0 C0.33 0 0.66 0 1 0 C1 5.61 1 11.22 1 17 C0.01 16.67 -0.98 16.34 -2 16 C-1.85936865 13.70800823 -1.71234057 11.41640814 -1.5625 9.125 C-1.48128906 7.84882813 -1.40007812 6.57265625 -1.31640625 5.2578125 C-1 2 -1 2 0 0 Z " fill="#F73432" transform="translate(394,367)"/>
<path d="M0 0 C1 3 1 3 0.3984375 4.76171875 C0.06070312 5.39722656 -0.27703125 6.03273438 -0.625 6.6875 C-1.17800781 7.72970703 -1.17800781 7.72970703 -1.7421875 8.79296875 C-3.72079498 12.26474895 -5.82498194 15.64833283 -8 19 C-8.66 18.67 -9.32 18.34 -10 18 C-8.70126608 14.45970129 -7.15122134 11.52988067 -5 8.4375 C-3.09937057 5.69584204 -1.42409849 3.01936265 0 0 Z " fill="#B3504C" transform="translate(357,264)"/>
<path d="M0 0 C0.33 0 0.66 0 1 0 C0.125 7.625 0.125 7.625 -1 11 C-3.0625 12.1875 -3.0625 12.1875 -5 13 C-6 10 -6 10 -4.8203125 7.51953125 C-4.26085937 6.62621094 -3.70140625 5.73289062 -3.125 4.8125 C-2.57070313 3.91144531 -2.01640625 3.01039063 -1.4453125 2.08203125 C-0.96835937 1.39496094 -0.49140625 0.70789063 0 0 Z " fill="#A24A4F" transform="translate(346,282)"/>
<path d="M0 0 C0.66 0.99 1.32 1.98 2 3 C0.02 5.97 -1.96 8.94 -4 12 C-7 9 -7 9 -8 6 C-7.34 5.67 -6.68 5.34 -6 5 C-6 5.66 -6 6.32 -6 7 C-4.68 7 -3.36 7 -2 7 C-2.3403125 6.1028125 -2.3403125 6.1028125 -2.6875 5.1875 C-2.790625 4.465625 -2.89375 3.74375 -3 3 C-1.5625 1.25 -1.5625 1.25 0 0 Z " fill="#6A4151" transform="translate(322,370)"/>
<path d="M0 0 C1.98 0 3.96 0 6 0 C5.74438677 2.3431213 5.40729228 4.67843403 5 7 C4.01 7.495 4.01 7.495 3 8 C3 7.01 3 6.02 3 5 C1.02 5.99 1.02 5.99 -1 7 C-0.67 4.69 -0.34 2.38 0 0 Z " fill="#193157" transform="translate(266,296)"/>
<path d="M0 0 C0.66 0 1.32 0 2 0 C1.9175 0.763125 1.835 1.52625 1.75 2.3125 C1.8325 3.199375 1.915 4.08625 2 5 C3.31337396 6.0260734 4.64664105 7.02727325 6 8 C6 9.32 6 10.64 6 12 C2.30209954 10.76736651 2.0645154 9.79947549 0.3125 6.4375 C-0.12449219 5.61121094 -0.56148438 4.78492188 -1.01171875 3.93359375 C-1.33785156 3.29550781 -1.66398437 2.65742188 -2 2 C-1.34 2 -0.68 2 0 2 C0 1.34 0 0.68 0 0 Z " fill="#41344C" transform="translate(294,338)"/>
<path d="M0 0 C0.66 0.99 1.32 1.98 2 3 C-0.97 7.95 -0.97 7.95 -4 13 C-5 11 -5 11 -4.51171875 8.90625 C-4.23972656 8.1121875 -3.96773438 7.318125 -3.6875 6.5 C-3.42324219 5.7059375 -3.15898437 4.911875 -2.88671875 4.09375 C-2 2 -2 2 0 0 Z " fill="#D6CBD0" transform="translate(328,307)"/>
<path d="M0 0 C0.99 0.33 1.98 0.66 3 1 C2.84660156 1.65355469 2.69320312 2.30710938 2.53515625 2.98046875 C1.86620406 6.75492159 1.64592703 10.48905996 1.4375 14.3125 C1.39431641 15.05306641 1.35113281 15.79363281 1.30664062 16.55664062 C1.20129568 18.37091464 1.10021684 20.1854355 1 22 C0.67 22 0.34 22 0 22 C0 14.74 0 7.48 0 0 Z " fill="#C5E0ED" transform="translate(221,250)"/>
<path d="M0 0 C0.99 0 1.98 0 3 0 C3.625 1.8125 3.625 1.8125 4 4 C2 7 2 7 -0.125 7.6875 C-0.74375 7.790625 -1.3625 7.89375 -2 8 C-2 4.79604584 -1.25664978 2.90600261 0 0 Z " fill="#1D3457" transform="translate(267,248)"/>
<path d="M0 0 C0.33 1.32 0.66 2.64 1 4 C0.38125 4.2475 -0.2375 4.495 -0.875 4.75 C-3.35068687 6.20628639 -3.95125002 7.37812506 -5 10 C-6.10844919 6.67465243 -5.84454356 4.37817425 -5 1 C-3.35 0.67 -1.7 0.34 0 0 Z " fill="#83353F" transform="translate(335,308)"/>
<path d="M0 0 C0.66 0 1.32 0 2 0 C2.66 1.98 3.32 3.96 4 6 C3.34 6 2.68 6 2 6 C2 7.32 2 8.64 2 10 C1.01 10 0.02 10 -1 10 C-1 9.34 -1 8.68 -1 8 C-0.34 8 0.32 8 1 8 C1 7.34 1 6.68 1 6 C0.34 5.67 -0.32 5.34 -1 5 C-0.67 3.35 -0.34 1.7 0 0 Z " fill="#38264D" transform="translate(297,302)"/>
<path d="M0 0 C1.32 0.33 2.64 0.66 4 1 C0.375 6.875 0.375 6.875 -3 8 C-2.45276317 4.62537285 -1.9451 2.91765 0 0 Z " fill="#E8D3D0" transform="translate(358,256)"/>
<path d="M0 0 C0.66 0 1.32 0 2 0 C2.33 1.32 2.66 2.64 3 4 C4.32 4.33 5.64 4.66 7 5 C6.67 6.65 6.34 8.3 6 10 C5.01 9.67 4.02 9.34 3 9 C2.05078125 6.93359375 2.05078125 6.93359375 1.3125 4.4375 C1.06113281 3.61121094 0.80976563 2.78492188 0.55078125 1.93359375 C0.36902344 1.29550781 0.18726563 0.65742188 0 0 Z " fill="#E5E1E9" transform="translate(313,317)"/>
<path d="M0 0 C3.21029714 1.10699901 4.00968977 2.01603825 5.8125 5 C6.204375 5.99 6.59625 6.98 7 8 C6.67 8.66 6.34 9.32 6 10 C5.01 10 4.02 10 3 10 C3 8.02 3 6.04 3 4 C2.01 4 1.02 4 0 4 C0 2.68 0 1.36 0 0 Z " fill="#CEE1ED" transform="translate(277,319)"/>
<path d="M0 0 C2.81662533 2.81662533 2 3.87518532 2 8 C2.66 8 3.32 8 4 8 C4.66 9.65 5.32 11.3 6 13 C3.29591177 11.97431136 2.02204475 11.02736589 0.1875 8.75 C-1.26716699 5.38129749 -0.89577032 3.50164762 0 0 Z " fill="#CFE3ED" transform="translate(285,267)"/>
<path d="M0 0 C0.99 0.33 1.98 0.66 3 1 C3.6875 3.25 3.6875 3.25 4 6 C2.5625 8.3125 2.5625 8.3125 1 10 C0 9 0 9 -0.09765625 6.93359375 C-0.08605469 6.10988281 -0.07445312 5.28617187 -0.0625 4.4375 C-0.05347656 3.61121094 -0.04445313 2.78492188 -0.03515625 1.93359375 C-0.02355469 1.29550781 -0.01195312 0.65742188 0 0 Z " fill="#9B2D39" transform="translate(336,336)"/>
<path d="M0 0 C2.0245738 1.93254772 3.42105792 3.63158688 5 6 C5 6.99 5 7.98 5 9 C3.125 8.6875 3.125 8.6875 1 8 C0.34 7.01 -0.32 6.02 -1 5 C-0.67 4.67 -0.34 4.34 0 4 C0 2.68 0 1.36 0 0 Z " fill="#544358" transform="translate(307,311)"/>
<path d="M0 0 C0.99 0 1.98 0 3 0 C3.625 1.8125 3.625 1.8125 4 4 C3.01 5.485 3.01 5.485 2 7 C0.5393715 4.35261084 0 3.10551666 0 0 Z M0 7 C0.66 7 1.32 7 2 7 C2 8.32 2 9.64 2 11 C1.34 11 0.68 11 0 11 C0 9.68 0 8.36 0 7 Z " fill="#443757" transform="translate(299,301)"/>
<path d="M0 0 C2.72426311 2.35277269 3.8141763 4.62496331 5 8 C3.68 8.33 2.36 8.66 1 9 C-1.125 2.25 -1.125 2.25 0 0 Z " fill="#D0CEDB" transform="translate(306,364)"/>
<path d="M0 0 C1 3 1 3 0.00390625 5.26171875 C-0.47175781 6.06222656 -0.94742187 6.86273438 -1.4375 7.6875 C-2.14712891 8.89986328 -2.14712891 8.89986328 -2.87109375 10.13671875 C-3.24363281 10.75160156 -3.61617188 11.36648438 -4 12 C-4.66 11.67 -5.32 11.34 -6 11 C-5.67 9.68 -5.34 8.36 -5 7 C-4.34 7 -3.68 7 -3 7 C-2.690625 6.21625 -2.38125 5.4325 -2.0625 4.625 C-1 2 -1 2 0 0 Z " fill="#B84348" transform="translate(357,314)"/>
<path d="M0 0 C3.51716303 3.51716303 3.54676163 5.19567333 4 10 C2.68 9.67 1.36 9.34 0 9 C0 6.03 0 3.06 0 0 Z " fill="#CDE5F3" transform="translate(268,302)"/>
<path d="M0 0 C1.65 0 3.3 0 5 0 C5.33 1.98 5.66 3.96 6 6 C5.01 6 4.02 6 3 6 C2.01 4.02 1.02 2.04 0 0 Z " fill="#442D46" transform="translate(299,351)"/>
<path d="M0 0 C0.99 0.33 1.98 0.66 3 1 C0.525 5.455 0.525 5.455 -2 10 C-2.33 10 -2.66 10 -3 10 C-3.36629408 5.72656908 -2.40814077 3.51187196 0 0 Z " fill="#8D4551" transform="translate(339,342)"/>
<path d="M0 0 C0.66 0.33 1.32 0.66 2 1 C-0.31 4.63 -2.62 8.26 -5 12 C-5.33 10.68 -5.66 9.36 -6 8 C-5.34 8 -4.68 8 -4 8 C-3.896875 7.236875 -3.79375 6.47375 -3.6875 5.6875 C-2.95635961 2.82940576 -2.23048087 1.84257115 0 0 Z " fill="#A24C54" transform="translate(350,327)"/>
<path d="M0 0 C0.33 0 0.66 0 1 0 C1 1.65 1 3.3 1 5 C0.34 5 -0.32 5 -1 5 C-1.66 6.32 -2.32 7.64 -3 9 C-3.33 8.01 -3.66 7.02 -4 6 C-4.99 6.495 -4.99 6.495 -6 7 C-5.67 6.01 -5.34 5.02 -5 4 C-4.34 4 -3.68 4 -3 4 C-3 3.34 -3 2.68 -3 2 C-2.01 2 -1.02 2 0 2 C0 1.34 0 0.68 0 0 Z " fill="#D6383A" transform="translate(359,308)"/>
<path d="M0 0 C0.66 0 1.32 0 2 0 C2 0.66 2 1.32 2 2 C1.34 2 0.68 2 0 2 C-0.103125 2.721875 -0.20625 3.44375 -0.3125 4.1875 C-1.05986932 7.24491993 -2.28045189 9.38329635 -4 12 C-4.66 11.67 -5.32 11.34 -6 11 C-5.18993474 9.35296694 -4.3768779 7.70740494 -3.5625 6.0625 C-3.11003906 5.14597656 -2.65757812 4.22945313 -2.19140625 3.28515625 C-1 1 -1 1 0 0 Z " fill="#E9D4CF" transform="translate(363,309)"/>
<path d="M0 0 C2.18975773 3.28463659 2.99806563 6.20696275 4 10 C2.0625 9.375 2.0625 9.375 0 8 C-1.40540541 2.81081081 -1.40540541 2.81081081 0 0 Z " fill="#D3E0E9" transform="translate(300,292)"/>
<path d="M0 0 C1.32 0.33 2.64 0.66 4 1 C4.33 2.65 4.66 4.3 5 6 C3.35 5.67 1.7 5.34 0 5 C0 3.35 0 1.7 0 0 Z " fill="#5D3E51" transform="translate(312,322)"/>
<path d="M0 0 C0 0.66 0 1.32 0 2 C-0.66 2 -1.32 2 -2 2 C-2.28875 2.969375 -2.5775 3.93875 -2.875 4.9375 C-4 8 -4 8 -6 9 C-5.6875 5.625 -5.6875 5.625 -5 2 C-2 0 -2 0 0 0 Z " fill="#C83930" transform="translate(355,277)"/>
<path d="M0 0 C2.96865509 2.54456151 4.3619751 5.48994665 6 9 C5.01 9 4.02 9 3 9 C2.67 8.01 2.34 7.02 2 6 C1.01 5.34 0.02 4.68 -1 4 C-0.67 2.68 -0.34 1.36 0 0 Z " fill="#33445D" transform="translate(285,275)"/>
<path d="M0 0 C0.66 0 1.32 0 2 0 C1.75 2.375 1.75 2.375 1 5 C-1.0625 6.3125 -1.0625 6.3125 -3 7 C-3 5.68 -3 4.36 -3 3 C-2.01 2.67 -1.02 2.34 0 2 C0 1.34 0 0.68 0 0 Z " fill="#CE5045" transform="translate(362,258)"/>
<path d="M0 0 C0.33 0 0.66 0 1 0 C1.33 1.98 1.66 3.96 2 6 C0.02 6.99 0.02 6.99 -2 8 C-2 4.23312136 -1.76462683 3.08809695 0 0 Z " fill="#D5D1D5" transform="translate(325,369)"/>
<path d="M0 0 C2.96865509 2.54456151 4.3619751 5.48994665 6 9 C5.01 9 4.02 9 3 9 C3 8.34 3 7.68 3 7 C2.34 7 1.68 7 1 7 C0.67 4.69 0.34 2.38 0 0 Z " fill="#404D61" transform="translate(291,285)"/>
<path d="M0 0 C0.66 0.33 1.32 0.66 2 1 C-0.475 5.455 -0.475 5.455 -3 10 C-4 6 -4 6 -2.0625 2.75 C-1.381875 1.8425 -0.70125 0.935 0 0 Z " fill="#F1B9B4" transform="translate(356,263)"/>
<path d="M0 0 C1.0625 1.875 1.0625 1.875 2 4 C1.67 4.66 1.34 5.32 1 6 C-1.5625 6.625 -1.5625 6.625 -4 7 C-2.68 4.69 -1.36 2.38 0 0 Z " fill="#D8CBD4" transform="translate(334,355)"/>
<path d="M0 0 C0.99 0.33 1.98 0.66 3 1 C4.1875 3.5625 4.1875 3.5625 5 6 C3.35 5.67 1.7 5.34 0 5 C0 3.35 0 1.7 0 0 Z " fill="#C6CFDB" transform="translate(288,336)"/>
<path d="M0 0 C0.33 0 0.66 0 1 0 C0.67 2.31 0.34 4.62 0 7 C-1.32 7.33 -2.64 7.66 -4 8 C-2.68 5.36 -1.36 2.72 0 0 Z " fill="#9C5A63" transform="translate(339,293)"/>
<path d="M0 0 C0.33 0 0.66 0 1 0 C1.36629408 4.27343092 0.40814077 6.48812804 -2 10 C-2.66 9.01 -3.32 8.02 -4 7 C-3.34 7 -2.68 7 -2 7 C-1.34 4.69 -0.68 2.38 0 0 Z " fill="#DC352F" transform="translate(357,272)"/>
<path d="M0 0 C0.33 0 0.66 0 1 0 C1 1.65 1 3.3 1 5 C0.360625 5.103125 -0.27875 5.20625 -0.9375 5.3125 C-1.618125 5.539375 -2.29875 5.76625 -3 6 C-3.33 6.99 -3.66 7.98 -4 9 C-4.33 8.34 -4.66 7.68 -5 7 C-3.625 5 -3.625 5 -2 3 C-1.34 3 -0.68 3 0 3 C0 2.01 0 1.02 0 0 Z " fill="#E1D5D8" transform="translate(351,269)"/>
<path d="M0 0 C1.65 0 3.3 0 5 0 C5 0.99 5 1.98 5 3 C3 4.6875 3 4.6875 1 6 C0.67 4.02 0.34 2.04 0 0 Z " fill="#172F4C" transform="translate(102,248)"/>
<path d="M0 0 C0.66 0 1.32 0 2 0 C2 1.65 2 3.3 2 5 C-0.31 4.67 -2.62 4.34 -5 4 C-4.0409375 3.8453125 -4.0409375 3.8453125 -3.0625 3.6875 C-2.381875 3.460625 -1.70125 3.23375 -1 3 C-0.67 2.01 -0.34 1.02 0 0 Z " fill="#1D3151" transform="translate(265,381)"/>
<path d="M0 0 C1.65 0.99 3.3 1.98 5 3 C4.67 4.32 4.34 5.64 4 7 C3.67 6.01 3.34 5.02 3 4 C2.01 3.67 1.02 3.34 0 3 C0 2.01 0 1.02 0 0 Z " fill="#D1DAE5" transform="translate(290,341)"/>
<path d="M0 0 C1.32 0 2.64 0 4 0 C3.67 0.66 3.34 1.32 3 2 C3 2.99 3 3.98 3 5 C1.68 5 0.36 5 -1 5 C-0.67 3.35 -0.34 1.7 0 0 Z " fill="#4D2749" transform="translate(305,315)"/>
<path d="M0 0 C0.6875 1.625 0.6875 1.625 1 4 C-0.4375 7.25 -0.4375 7.25 -2 10 C-2.66 9.01 -3.32 8.02 -4 7 C-2.68 4.69 -1.36 2.38 0 0 Z " fill="#74414A" transform="translate(329,310)"/>
<path d="M0 0 C1.2077558 3.62326739 0.54311128 4.64146369 -1 8 C-3 6 -3 6 -3.125 3.375 C-3.08375 2.59125 -3.0425 1.8075 -3 1 C-2.01 1.495 -2.01 1.495 -1 2 C-0.67 1.34 -0.34 0.68 0 0 Z " fill="#C6D7DC" transform="translate(300,289)"/>
</svg>
